{"asset":{"version":"2.0","generator":"babylon.js glTF exporter for 3dsmax 2022 v20210802.1"},"scene":0,"scenes":[{"nodes":[0,1]}],"nodes":[{"skin":0,"mesh":0,"name":"body"},{"children":[2,9],"translation":[0.3139849,-0.328042358,-0.176],"rotation":[0.5108995,0.4888567,0.4888576,0.5109004],"scale":[0.99999994,1.0,0.99999994],"name":"Bip01"},{"children":[3,4,5,6,7,8],"translation":[-0.0399057753,-3.81469718E-08,0.0248051826],"rotation":[-0.008765758,-0.594387054,-0.115655519,0.7957707],"scale":[0.99999994,1.0,0.99999994],"name":"head"},{"translation":[0.7188934,0.62,-0.0502740853],"rotation":[-0.646173239,-0.18557857,0.6959255,0.252405375],"scale":[0.9999999,1.0,0.9999998],"name":"eye2_r"},{"translation":[0.7188934,0.62,-0.0502740853],"rotation":[-0.66914,-0.459125549,0.281977624,0.5118048],"scale":[1.0,0.999999762,0.99999994],"name":"eye_r"},{"translation":[0.7188936,-0.6199999,-0.0502740853],"rotation":[-0.252405643,0.6959254,-0.185578868,0.64617306],"scale":[0.9999998,0.9999998,0.999999762],"name":"eye2_l"},{"translation":[0.7188936,-0.6199999,-0.0502740853],"rotation":[-0.5533183,0.342116624,-0.420417458,0.6324905],"scale":[0.99999994,0.999999762,0.99999994],"name":"eye_l"},{"translation":[0.8470236,-0.7449999,-0.45631367],"rotation":[-0.8540331,-0.190123513,0.4778051,0.0786306038],"scale":[0.9999997,0.99999994,0.9999998],"name":"meimao_l"},{"translation":[0.8470233,0.745,-0.4563136],"rotation":[-0.07863097,0.4778051,-0.190123752,0.854033053],"scale":[0.9999999,0.99999994,0.999999762],"name":"meimao_r"},{"children":[10,12,13],"translation":[-0.0239660647,9.5367426E-08,-0.0457341745],"rotation":[0.0004054391,0.536405444,0.0491306521,0.842529058],"scale":[1.0,1.00000012,0.9999999],"name":"Bone002"},{"children":[11],"translation":[0.9150858,1.90734859E-08,3.814697E-07],"rotation":[-0.0035456568,0.0417352878,-0.06612774,0.9969317],"scale":[0.99999994,0.9999998,0.999999762],"name":"Bone003"},{"translation":[0.9076767,3.33786E-08,-1.14440915E-07],"rotation":[-0.0224671066,-0.08861331,-0.138001963,0.986204],"scale":[1.00000024,0.9999999,0.99999994],"name":"Bone004"},{"translation":[-0.1076955,-1.43051139E-07,-0.7374785],"rotation":[-2.95051077E-08,0.467838436,-2.37094639E-07,0.883814037],"scale":[0.99999994,1.0,0.9999999],"name":"q2"},{"translation":[0.7977592,1.52587887E-07,0.435583562],"rotation":[0.0234202947,-0.342201531,-0.203716025,0.916978359],"scale":[0.999999762,0.99999994,0.9999998],"name":"q1"}],"meshes":[{"primitives":[{"attributes":{"POSITION":1,"NORMAL":2,"TEXCOORD_0":3,"JOINTS_0":4,"WEIGHTS_0":5},"indices":0,"material":0}],"name":"body"}],"accessors":[{"bufferView":0,"componentType":5123,"count":3840,"type":"SCALAR","name":"accessorIndices"},{"bufferView":1,"componentType":5126,"count":3840,"max":[2.40288472,1.11847,0.8184121],"min":[-1.98048961,-0.7379983,-1.42831266],"type":"VEC3","name":"accessorPositions"},{"bufferView":1,"byteOffset":46080,"componentType":5126,"count":3840,"type":"VEC3","name":"accessorNormals"},{"bufferView":2,"componentType":5126,"count":3840,"type":"VEC2","name":"accessorUVs"},{"bufferView":3,"componentType":5123,"count":3840,"type":"VEC4","name":"accessorJoints"},{"bufferView":4,"componentType":5126,"count":3840,"type":"VEC4","name":"accessorWeights"},{"bufferView":5,"componentType":5126,"count":13,"type":"MAT4","name":"accessorInverseBindMatrices"},{"bufferView":6,"componentType":5126,"count":64,"max":[2.33333325],"min":[0.0],"type":"SCALAR","name":"accessorAnimationInput"},{"bufferView":7,"componentType":5126,"count":64,"type":"VEC3","name":"accessorAnimationPositions"},{"bufferView":8,"componentType":5126,"count":64,"type":"VEC4","name":"accessorAnimationRotations"},{"bufferView":7,"byteOffset":768,"componentType":5126,"count":64,"type":"VEC3","name":"accessorAnimationScales"},{"bufferView":6,"byteOffset":256,"componentType":5126,"count":69,"max":[2.33333325],"min":[0.0],"type":"SCALAR","name":"accessorAnimationInput"},{"bufferView":7,"byteOffset":1536,"componentType":5126,"count":69,"type":"VEC3","name":"accessorAnimationPositions"},{"bufferView":8,"byteOffset":1024,"componentType":5126,"count":69,"type":"VEC4","name":"accessorAnimationRotations"},{"bufferView":7,"byteOffset":2364,"componentType":5126,"count":69,"type":"VEC3","name":"accessorAnimationScales"},{"bufferView":6,"byteOffset":532,"componentType":5126,"count":14,"max":[2.33333325],"min":[0.0],"type":"SCALAR","name":"accessorAnimationInput"},{"bufferView":7,"byteOffset":3192,"componentType":5126,"count":14,"type":"VEC3","name":"accessorAnimationPositions"},{"bufferView":8,"byteOffset":2128,"componentType":5126,"count":14,"type":"VEC4","name":"accessorAnimationRotations"},{"bufferView":7,"byteOffset":3360,"componentType":5126,"count":14,"type":"VEC3","name":"accessorAnimationScales"},{"bufferView":6,"byteOffset":588,"componentType":5126,"count":24,"max":[2.33333325],"min":[0.0],"type":"SCALAR","name":"accessorAnimationInput"},{"bufferView":7,"byteOffset":3528,"componentType":5126,"count":24,"type":"VEC3","name":"accessorAnimationPositions"},{"bufferView":8,"byteOffset":2352,"componentType":5126,"count":24,"type":"VEC4","name":"accessorAnimationRotations"},{"bufferView":7,"byteOffset":3816,"componentType":5126,"count":24,"type":"VEC3","name":"accessorAnimationScales"},{"bufferView":6,"byteOffset":684,"componentType":5126,"count":24,"max":[2.33333325],"min":[0.0],"type":"SCALAR","name":"accessorAnimationInput"},{"bufferView":7,"byteOffset":4104,"componentType":5126,"count":24,"type":"VEC3","name":"accessorAnimationPositions"},{"bufferView":8,"byteOffset":2736,"componentType":5126,"count":24,"type":"VEC4","name":"accessorAnimationRotations"},{"bufferView":7,"byteOffset":4392,"componentType":5126,"count":24,"type":"VEC3","name":"accessorAnimationScales"},{"bufferView":6,"byteOffset":780,"componentType":5126,"count":20,"max":[2.33333325],"min":[0.0],"type":"SCALAR","name":"accessorAnimationInput"},{"bufferView":7,"byteOffset":4680,"componentType":5126,"count":20,"type":"VEC3","name":"accessorAnimationPositions"},{"bufferView":8,"byteOffset":3120,"componentType":5126,"count":20,"type":"VEC4","name":"accessorAnimationRotations"},{"bufferView":7,"byteOffset":4920,"componentType":5126,"count":20,"type":"VEC3","name":"accessorAnimationScales"},{"bufferView":6,"byteOffset":860,"componentType":5126,"count":12,"max":[2.33333325],"min":[0.0],"type":"SCALAR","name":"accessorAnimationInput"},{"bufferView":7,"byteOffset":5160,"componentType":5126,"count":12,"type":"VEC3","name":"accessorAnimationPositions"},{"bufferView":8,"byteOffset":3440,"componentType":5126,"count":12,"type":"VEC4","name":"accessorAnimationRotations"},{"bufferView":7,"byteOffset":5304,"componentType":5126,"count":12,"type":"VEC3","name":"accessorAnimationScales"},{"bufferView":6,"byteOffset":908,"componentType":5126,"count":52,"max":[2.33333325],"min":[0.0],"type":"SCALAR","name":"accessorAnimationInput"},{"bufferView":7,"byteOffset":5448,"componentType":5126,"count":52,"type":"VEC3","name":"accessorAnimationPositions"},{"bufferView":8,"byteOffset":3632,"componentType":5126,"count":52,"type":"VEC4","name":"accessorAnimationRotations"},{"bufferView":7,"byteOffset":6072,"componentType":5126,"count":52,"type":"VEC3","name":"accessorAnimationScales"},{"bufferView":6,"byteOffset":1116,"componentType":5126,"count":71,"max":[2.33333325],"min":[0.0],"type":"SCALAR","name":"accessorAnimationInput"},{"bufferView":7,"byteOffset":6696,"componentType":5126,"count":71,"type":"VEC3","name":"accessorAnimationPositions"},{"bufferView":8,"byteOffset":4464,"componentType":5126,"count":71,"type":"VEC4","name":"accessorAnimationRotations"},{"bufferView":7,"byteOffset":7548,"componentType":5126,"count":71,"type":"VEC3","name":"accessorAnimationScales"},{"bufferView":6,"byteOffset":1400,"componentType":5126,"count":2,"max":[2.33333325],"min":[0.0],"type":"SCALAR","name":"accessorAnimationInput"},{"bufferView":7,"byteOffset":8400,"componentType":5126,"count":2,"type":"VEC3","name":"accessorAnimationPositions"},{"bufferView":8,"byteOffset":5600,"componentType":5126,"count":2,"type":"VEC4","name":"accessorAnimationRotations"},{"bufferView":7,"byteOffset":8424,"componentType":5126,"count":2,"type":"VEC3","name":"accessorAnimationScales"},{"bufferView":6,"byteOffset":1408,"componentType":5126,"count":69,"max":[2.33333325],"min":[0.0],"type":"SCALAR","name":"accessorAnimationInput"},{"bufferView":7,"byteOffset":8448,"componentType":5126,"count":69,"type":"VEC3","name":"accessorAnimationPositions"},{"bufferView":8,"byteOffset":5632,"componentType":5126,"count":69,"type":"VEC4","name":"accessorAnimationRotations"},{"bufferView":7,"byteOffset":9276,"componentType":5126,"count":69,"type":"VEC3","name":"accessorAnimationScales"},{"bufferView":6,"byteOffset":1684,"componentType":5126,"count":71,"max":[2.33333325],"min":[0.0],"type":"SCALAR","name":"accessorAnimationInput"},{"bufferView":7,"byteOffset":10104,"componentType":5126,"count":71,"type":"VEC3","name":"accessorAnimationPositions"},{"bufferView":8,"byteOffset":6736,"componentType":5126,"count":71,"type":"VEC4","name":"accessorAnimationRotations"},{"bufferView":7,"byteOffset":10956,"componentType":5126,"count":71,"type":"VEC3","name":"accessorAnimationScales"},{"bufferView":6,"byteOffset":1968,"componentType":5126,"count":71,"max":[2.33333325],"min":[0.0],"type":"SCALAR","name":"accessorAnimationInput"},{"bufferView":7,"byteOffset":11808,"componentType":5126,"count":71,"type":"VEC3","name":"accessorAnimationPositions"},{"bufferView":8,"byteOffset":7872,"componentType":5126,"count":71,"type":"VEC4","name":"accessorAnimationRotations"},{"bufferView":7,"byteOffset":12660,"componentType":5126,"count":71,"type":"VEC3","name":"accessorAnimationScales"},{"bufferView":6,"byteOffset":2252,"componentType":5126,"count":43,"max":[1.4],"min":[0.0],"type":"SCALAR","name":"accessorAnimationInput"},{"bufferView":7,"byteOffset":13512,"componentType":5126,"count":43,"type":"VEC3","name":"accessorAnimationPositions"},{"bufferView":8,"byteOffset":9008,"componentType":5126,"count":43,"type":"VEC4","name":"accessorAnimationRotations"},{"bufferView":7,"byteOffset":14028,"componentType":5126,"count":43,"type":"VEC3","name":"accessorAnimationScales"},{"bufferView":6,"byteOffset":2424,"componentType":5126,"count":43,"max":[1.4],"min":[0.0],"type":"SCALAR","name":"accessorAnimationInput"},{"bufferView":7,"byteOffset":14544,"componentType":5126,"count":43,"type":"VEC3","name":"accessorAnimationPositions"},{"bufferView":8,"byteOffset":9696,"componentType":5126,"count":43,"type":"VEC4","name":"accessorAnimationRotations"},{"bufferView":7,"byteOffset":15060,"componentType":5126,"count":43,"type":"VEC3","name":"accessorAnimationScales"},{"bufferView":6,"byteOffset":2596,"componentType":5126,"count":43,"max":[1.4],"min":[0.0],"type":"SCALAR","name":"accessorAnimationInput"},{"bufferView":7,"byteOffset":15576,"componentType":5126,"count":43,"type":"VEC3","name":"accessorAnimationPositions"},{"bufferView":8,"byteOffset":10384,"componentType":5126,"count":43,"type":"VEC4","name":"accessorAnimationRotations"},{"bufferView":7,"byteOffset":16092,"componentType":5126,"count":43,"type":"VEC3","name":"accessorAnimationScales"},{"bufferView":6,"byteOffset":2768,"componentType":5126,"count":43,"max":[1.4],"min":[0.0],"type":"SCALAR","name":"accessorAnimationInput"},{"bufferView":7,"byteOffset":16608,"componentType":5126,"count":43,"type":"VEC3","name":"accessorAnimationPositions"},{"bufferView":8,"byteOffset":11072,"componentType":5126,"count":43,"type":"VEC4","name":"accessorAnimationRotations"},{"bufferView":7,"byteOffset":17124,"componentType":5126,"count":43,"type":"VEC3","name":"accessorAnimationScales"},{"bufferView":6,"byteOffset":2940,"componentType":5126,"count":43,"max":[1.4],"min":[0.0],"type":"SCALAR","name":"accessorAnimationInput"},{"bufferView":7,"byteOffset":17640,"componentType":5126,"count":43,"type":"VEC3","name":"accessorAnimationPositions"},{"bufferView":8,"byteOffset":11760,"componentType":5126,"count":43,"type":"VEC4","name":"accessorAnimationRotations"},{"bufferView":7,"byteOffset":18156,"componentType":5126,"count":43,"type":"VEC3","name":"accessorAnimationScales"},{"bufferView":6,"byteOffset":3112,"componentType":5126,"count":43,"max":[1.4],"min":[0.0],"type":"SCALAR","name":"accessorAnimationInput"},{"bufferView":7,"byteOffset":18672,"componentType":5126,"count":43,"type":"VEC3","name":"accessorAnimationPositions"},{"bufferView":8,"byteOffset":12448,"componentType":5126,"count":43,"type":"VEC4","name":"accessorAnimationRotations"},{"bufferView":7,"byteOffset":19188,"componentType":5126,"count":43,"type":"VEC3","name":"accessorAnimationScales"},{"bufferView":6,"byteOffset":3284,"componentType":5126,"count":43,"max":[1.4],"min":[0.0],"type":"SCALAR","name":"accessorAnimationInput"},{"bufferView":7,"byteOffset":19704,"componentType":5126,"count":43,"type":"VEC3","name":"accessorAnimationPositions"},{"bufferView":8,"byteOffset":13136,"componentType":5126,"count":43,"type":"VEC4","name":"accessorAnimationRotations"},{"bufferView":7,"byteOffset":20220,"componentType":5126,"count":43,"type":"VEC3","name":"accessorAnimationScales"},{"bufferView":6,"byteOffset":3456,"componentType":5126,"count":2,"max":[1.4],"min":[0.0],"type":"SCALAR","name":"accessorAnimationInput"},{"bufferView":7,"byteOffset":20736,"componentType":5126,"count":2,"type":"VEC3","name":"accessorAnimationPositions"},{"bufferView":8,"byteOffset":13824,"componentType":5126,"count":2,"type":"VEC4","name":"accessorAnimationRotations"},{"bufferView":7,"byteOffset":20760,"componentType":5126,"count":2,"type":"VEC3","name":"accessorAnimationScales"},{"bufferView":6,"byteOffset":3464,"componentType":5126,"count":15,"max":[1.4],"min":[0.0],"type":"SCALAR","name":"accessorAnimationInput"},{"bufferView":7,"byteOffset":20784,"componentType":5126,"count":15,"type":"VEC3","name":"accessorAnimationPositions"},{"bufferView":8,"byteOffset":13856,"componentType":5126,"count":15,"type":"VEC4","name":"accessorAnimationRotations"},{"bufferView":7,"byteOffset":20964,"componentType":5126,"count":15,"type":"VEC3","name":"accessorAnimationScales"},{"bufferView":6,"byteOffset":3524,"componentType":5126,"count":43,"max":[1.4],"min":[0.0],"type":"SCALAR","name":"accessorAnimationInput"},{"bufferView":7,"byteOffset":21144,"componentType":5126,"count":43,"type":"VEC3","name":"accessorAnimationPositions"},{"bufferView":8,"byteOffset":14096,"componentType":5126,"count":43,"type":"VEC4","name":"accessorAnimationRotations"},{"bufferView":7,"byteOffset":21660,"componentType":5126,"count":43,"type":"VEC3","name":"accessorAnimationScales"},{"bufferView":6,"byteOffset":3696,"componentType":5126,"count":43,"max":[1.4],"min":[0.0],"type":"SCALAR","name":"accessorAnimationInput"},{"bufferView":7,"byteOffset":22176,"componentType":5126,"count":43,"type":"VEC3","name":"accessorAnimationPositions"},{"bufferView":8,"byteOffset":14784,"componentType":5126,"count":43,"type":"VEC4","name":"accessorAnimationRotations"},{"bufferView":7,"byteOffset":22692,"componentType":5126,"count":43,"type":"VEC3","name":"accessorAnimationScales"},{"bufferView":6,"byteOffset":3868,"componentType":5126,"count":43,"max":[1.4],"min":[0.0],"type":"SCALAR","name":"accessorAnimationInput"},{"bufferView":7,"byteOffset":23208,"componentType":5126,"count":43,"type":"VEC3","name":"accessorAnimationPositions"},{"bufferView":8,"byteOffset":15472,"componentType":5126,"count":43,"type":"VEC4","name":"accessorAnimationRotations"},{"bufferView":7,"byteOffset":23724,"componentType":5126,"count":43,"type":"VEC3","name":"accessorAnimationScales"},{"bufferView":6,"byteOffset":4040,"componentType":5126,"count":43,"max":[1.4],"min":[0.0],"type":"SCALAR","name":"accessorAnimationInput"},{"bufferView":7,"byteOffset":24240,"componentType":5126,"count":43,"type":"VEC3","name":"accessorAnimationPositions"},{"bufferView":8,"byteOffset":16160,"componentType":5126,"count":43,"type":"VEC4","name":"accessorAnimationRotations"},{"bufferView":7,"byteOffset":24756,"componentType":5126,"count":43,"type":"VEC3","name":"accessorAnimationScales"}],"bufferViews":[{"buffer":0,"byteLength":7680,"name":"bufferViewScalar"},{"buffer":0,"byteOffset":7680,"byteLength":92160,"byteStride":12,"name":"bufferViewFloatVec3"},{"buffer":0,"byteOffset":99840,"byteLength":30720,"byteStride":8,"name":"bufferViewFloatVec2"},{"buffer":0,"byteOffset":130560,"byteLength":30720,"byteStride":8,"name":"bufferViewUnsignedShortVec4"},{"buffer":0,"byteOffset":161280,"byteLength":61440,"byteStride":16,"name":"bufferViewFloatVec4"},{"buffer":0,"byteOffset":222720,"byteLength":832,"name":"bufferViewFloatMat4"},{"buffer":0,"byteOffset":223552,"byteLength":4212,"name":"bufferViewAnimationFloatScalar"},{"buffer":0,"byteOffset":227764,"byteLength":25272,"name":"bufferViewAnimationFloatVec3"},{"buffer":0,"byteOffset":253036,"byteLength":16848,"name":"bufferViewAnimationFloatVec4"}],"buffers":[{"uri":"cheqiyu.bin","byteLength":269884}],"materials":[{"pbrMetallicRoughness":{"baseColorTexture":{"index":0},"metallicFactor":0.0,"roughnessFactor":0.9},"doubleSided":true,"name":"Material #1"}],"textures":[{"sampler":0,"source":0,"name":"cheqiyu.png"}],"images":[{"uri":"cheqiyu.png"}],"samplers":[{"magFilter":9729,"minFilter":9987}],"animations":[{"channels":[{"sampler":0,"target":{"node":1,"path":"translation"}},{"sampler":1,"target":{"node":1,"path":"rotation"}},{"sampler":2,"target":{"node":1,"path":"scale"}},{"sampler":3,"target":{"node":2,"path":"translation"}},{"sampler":4,"target":{"node":2,"path":"rotation"}},{"sampler":5,"target":{"node":2,"path":"scale"}},{"sampler":6,"target":{"node":8,"path":"translation"}},{"sampler":7,"target":{"node":8,"path":"rotation"}},{"sampler":8,"target":{"node":8,"path":"scale"}},{"sampler":9,"target":{"node":7,"path":"translation"}},{"sampler":10,"target":{"node":7,"path":"rotation"}},{"sampler":11,"target":{"node":7,"path":"scale"}},{"sampler":12,"target":{"node":5,"path":"translation"}},{"sampler":13,"target":{"node":5,"path":"rotation"}},{"sampler":14,"target":{"node":5,"path":"scale"}},{"sampler":15,"target":{"node":3,"path":"translation"}},{"sampler":16,"target":{"node":3,"path":"rotation"}},{"sampler":17,"target":{"node":3,"path":"scale"}},{"sampler":18,"target":{"node":4,"path":"translation"}},{"sampler":19,"target":{"node":4,"path":"rotation"}},{"sampler":20,"target":{"node":4,"path":"scale"}},{"sampler":21,"target":{"node":6,"path":"translation"}},{"sampler":22,"target":{"node":6,"path":"rotation"}},{"sampler":23,"target":{"node":6,"path":"scale"}},{"sampler":24,"target":{"node":9,"path":"translation"}},{"sampler":25,"target":{"node":9,"path":"rotation"}},{"sampler":26,"target":{"node":9,"path":"scale"}},{"sampler":27,"target":{"node":12,"path":"translation"}},{"sampler":28,"target":{"node":12,"path":"rotation"}},{"sampler":29,"target":{"node":12,"path":"scale"}},{"sampler":30,"target":{"node":13,"path":"translation"}},{"sampler":31,"target":{"node":13,"path":"rotation"}},{"sampler":32,"target":{"node":13,"path":"scale"}},{"sampler":33,"target":{"node":10,"path":"translation"}},{"sampler":34,"target":{"node":10,"path":"rotation"}},{"sampler":35,"target":{"node":10,"path":"scale"}},{"sampler":36,"target":{"node":11,"path":"translation"}},{"sampler":37,"target":{"node":11,"path":"rotation"}},{"sampler":38,"target":{"node":11,"path":"scale"}}],"samplers":[{"input":7,"output":8},{"input":7,"output":9},{"input":7,"output":10},{"input":11,"output":12},{"input":11,"output":13},{"input":11,"output":14},{"input":15,"output":16},{"input":15,"output":17},{"input":15,"output":18},{"input":19,"output":20},{"input":19,"output":21},{"input":19,"output":22},{"input":23,"output":24},{"input":23,"output":25},{"input":23,"output":26},{"input":27,"output":28},{"input":27,"output":29},{"input":27,"output":30},{"input":31,"output":32},{"input":31,"output":33},{"input":31,"output":34},{"input":35,"output":36},{"input":35,"output":37},{"input":35,"output":38},{"input":39,"output":40},{"input":39,"output":41},{"input":39,"output":42},{"input":43,"output":44},{"input":43,"output":45},{"input":43,"output":46},{"input":47,"output":48},{"input":47,"output":49},{"input":47,"output":50},{"input":51,"output":52},{"input":51,"output":53},{"input":51,"output":54},{"input":55,"output":56},{"input":55,"output":57},{"input":55,"output":58}],"name":"Swim"},{"channels":[{"sampler":0,"target":{"node":1,"path":"translation"}},{"sampler":1,"target":{"node":1,"path":"rotation"}},{"sampler":2,"target":{"node":1,"path":"scale"}},{"sampler":3,"target":{"node":9,"path":"translation"}},{"sampler":4,"target":{"node":9,"path":"rotation"}},{"sampler":5,"target":{"node":9,"path":"scale"}},{"sampler":6,"target":{"node":2,"path":"translation"}},{"sampler":7,"target":{"node":2,"path":"rotation"}},{"sampler":8,"target":{"node":2,"path":"scale"}},{"sampler":9,"target":{"node":10,"path":"translation"}},{"sampler":10,"target":{"node":10,"path":"rotation"}},{"sampler":11,"target":{"node":10,"path":"scale"}},{"sampler":12,"target":{"node":11,"path":"translation"}},{"sampler":13,"target":{"node":11,"path":"rotation"}},{"sampler":14,"target":{"node":11,"path":"scale"}},{"sampler":15,"target":{"node":13,"path":"translation"}},{"sampler":16,"target":{"node":13,"path":"rotation"}},{"sampler":17,"target":{"node":13,"path":"scale"}},{"sampler":18,"target":{"node":12,"path":"translation"}},{"sampler":19,"target":{"node":12,"path":"rotation"}},{"sampler":20,"target":{"node":12,"path":"scale"}},{"sampler":21,"target":{"node":6,"path":"translation"}},{"sampler":22,"target":{"node":6,"path":"rotation"}},{"sampler":23,"target":{"node":6,"path":"scale"}},{"sampler":24,"target":{"node":4,"path":"translation"}},{"sampler":25,"target":{"node":4,"path":"rotation"}},{"sampler":26,"target":{"node":4,"path":"scale"}},{"sampler":27,"target":{"node":3,"path":"translation"}},{"sampler":28,"target":{"node":3,"path":"rotation"}},{"sampler":29,"target":{"node":3,"path":"scale"}},{"sampler":30,"target":{"node":5,"path":"translation"}},{"sampler":31,"target":{"node":5,"path":"rotation"}},{"sampler":32,"target":{"node":5,"path":"scale"}},{"sampler":33,"target":{"node":7,"path":"translation"}},{"sampler":34,"target":{"node":7,"path":"rotation"}},{"sampler":35,"target":{"node":7,"path":"scale"}},{"sampler":36,"target":{"node":8,"path":"translation"}},{"sampler":37,"target":{"node":8,"path":"rotation"}},{"sampler":38,"target":{"node":8,"path":"scale"}}],"samplers":[{"input":59,"output":60},{"input":59,"output":61},{"input":59,"output":62},{"input":63,"output":64},{"input":63,"output":65},{"input":63,"output":66},{"input":67,"output":68},{"input":67,"output":69},{"input":67,"output":70},{"input":71,"output":72},{"input":71,"output":73},{"input":71,"output":74},{"input":75,"output":76},{"input":75,"output":77},{"input":75,"output":78},{"input":79,"output":80},{"input":79,"output":81},{"input":79,"output":82},{"input":83,"output":84},{"input":83,"output":85},{"input":83,"output":86},{"input":87,"output":88},{"input":87,"output":89},{"input":87,"output":90},{"input":91,"output":92},{"input":91,"output":93},{"input":91,"output":94},{"input":95,"output":96},{"input":95,"output":97},{"input":95,"output":98},{"input":99,"output":100},{"input":99,"output":101},{"input":99,"output":102},{"input":103,"output":104},{"input":103,"output":105},{"input":103,"output":106},{"input":107,"output":108},{"input":107,"output":109},{"input":107,"output":110}],"name":"Die"}],"skins":[{"inverseBindMatrices":6,"skeleton":1,"joints":[1,2,3,4,5,6,7,8,9,10,11,12,13],"name":"skeleton #0"}]}