{"accessors" : [{"bufferView" : 0, "byteOffset" : 0, "componentType" : 5123, "count" : 3012, "type" : "SCALAR", "max" : [3011], "min" : [0]}, {"bufferView" : 1, "byteOffset" : 0, "componentType" : 5126, "count" : 3012, "type" : "VEC3", "max" : [1.6272599697113037, 4.105490207672119, 2.8126299381256104], "min" : [-1.6272599697113037, 2.6075398921966553, 0.9145500063896179], "name" : "POSITION"}, {"bufferView" : 1, "byteOffset" : 12, "componentType" : 5126, "count" : 3012, "type" : "VEC3", "max" : [0.9988836050033569, 0.3484646677970886, 0.9703994989395142], "min" : [-0.9988836646080017, -0.999424159526825, -0.9870662689208984], "name" : "NORMAL"}, {"bufferView" : 1, "byteOffset" : 24, "componentType" : 5126, "count" : 3012, "type" : "VEC2", "max" : [0.8254500031471252, -0.08389999717473984], "min" : [0.17453999817371368, -0.851069986820221], "name" : "TEXCOORD_0"}, {"bufferView" : 0, "byteOffset" : 6024, "componentType" : 5123, "count" : 2412, "type" : "SCALAR", "max" : [2411], "min" : [0]}, {"bufferView" : 2, "byteOffset" : 0, "componentType" : 5126, "count" : 2412, "type" : "VEC3", "max" : [1.0794299840927124, 3.7008800506591797, 2.229180097579956], "min" : [-1.0794299840927124, 2.573780059814453, 0.8207499980926514], "name" : "POSITION"}, {"bufferView" : 2, "byteOffset" : 12, "componentType" : 5126, "count" : 2412, "type" : "VEC3", "max" : [0.9979729652404785, 0.9880896210670471, 0.9998270273208618], "min" : [-0.9979729056358337, -0.5969180464744568, -0.9295616149902344], "name" : "NORMAL"}, {"bufferView" : 2, "byteOffset" : 24, "componentType" : 5126, "count" : 2412, "type" : "VEC2", "max" : [0.8616799712181091, -0.0871099978685379], "min" : [0.1387300044298172, -0.862559974193573], "name" : "TEXCOORD_0"}, {"bufferView" : 0, "byteOffset" : 10848, "componentType" : 5123, "count" : 360, "type" : "SCALAR", "max" : [359], "min" : [0]}, {"bufferView" : 3, "byteOffset" : 0, "componentType" : 5126, "count" : 360, "type" : "VEC3", "max" : [1.0877000093460083, 3.763740062713623, 1.82246994972229], "min" : [-1.0836000442504883, 2.8641700744628906, -1.0052599906921387], "name" : "POSITION"}, {"bufferView" : 3, "byteOffset" : 12, "componentType" : 5126, "count" : 360, "type" : "VEC3", "max" : [0.7652102708816528, 0.9818191528320312, 0.6765981912612915], "min" : [-0.7652105093002319, -0.9998649954795837, -0.3976866602897644], "name" : "NORMAL"}, {"bufferView" : 3, "byteOffset" : 24, "componentType" : 5126, "count" : 360, "type" : "VEC2", "max" : [0.558650016784668, -0.028550000861287117], "min" : [0.451990008354187, -0.16966000199317932], "name" : "TEXCOORD_0"}, {"bufferView" : 0, "byteOffset" : 11568, "componentType" : 5123, "count" : 6672, "type" : "SCALAR", "max" : [5250], "min" : [0]}, {"bufferView" : 4, "byteOffset" : 0, "componentType" : 5126, "count" : 5251, "type" : "VEC3", "max" : [4.176529884338379, 7.954899787902832, 4.286320209503174], "min" : [-4.176539897918701, 2.0886900424957275, -11.798879623413086], "name" : "POSITION"}, {"bufferView" : 4, "byteOffset" : 12, "componentType" : 5126, "count" : 5251, "type" : "VEC3", "max" : [0.9995682835578918, 0.9992507696151733, 0.9984879493713379], "min" : [-0.9997690320014954, -0.9994533658027649, -0.9961557388305664], "name" : "NORMAL"}, {"bufferView" : 4, "byteOffset" : 24, "componentType" : 5126, "count" : 5251, "type" : "VEC2", "max" : [1, -0], "min" : [0, -1], "name" : "TEXCOORD_0"}, {"bufferView" : 0, "byteOffset" : 24912, "componentType" : 5123, "count" : 576, "type" : "SCALAR", "max" : [442], "min" : [0]}, {"bufferView" : 5, "byteOffset" : 0, "componentType" : 5126, "count" : 443, "type" : "VEC3", "max" : [1.9577499628067017, 4.8673601150512695, 2.154059886932373], "min" : [1.0070300102233887, 3.912709951400757, 1.2113900184631348], "name" : "POSITION"}, {"bufferView" : 5, "byteOffset" : 12, "componentType" : 5126, "count" : 443, "type" : "VEC3", "max" : [0.9881906509399414, 0.9999722242355347, 0.9801040291786194], "min" : [-0.9881926774978638, -0.9999723434448242, -0.980101466178894], "name" : "NORMAL"}, {"bufferView" : 5, "byteOffset" : 24, "componentType" : 5126, "count" : 443, "type" : "VEC2", "max" : [0.9659299850463867, -0.022679999470710754], "min" : [0.03407000005245209, -0.9773200154304504], "name" : "TEXCOORD_0"}, {"bufferView" : 0, "byteOffset" : 26064, "componentType" : 5123, "count" : 576, "type" : "SCALAR", "max" : [445], "min" : [0]}, {"bufferView" : 6, "byteOffset" : 0, "componentType" : 5126, "count" : 446, "type" : "VEC3", "max" : [-1.0069700479507446, 4.8673601150512695, 2.154059886932373], "min" : [-1.9576900005340576, 3.912709951400757, 1.2113900184631348], "name" : "POSITION"}, {"bufferView" : 6, "byteOffset" : 12, "componentType" : 5126, "count" : 446, "type" : "VEC3", "max" : [0.9825810790061951, 0.9999727606773376, 0.9830753803253174], "min" : [-0.9825811982154846, -0.9999727606773376, -0.9830780029296875], "name" : "NORMAL"}, {"bufferView" : 6, "byteOffset" : 24, "componentType" : 5126, "count" : 446, "type" : "VEC2", "max" : [0.9659199714660645, -0.022679999470710754], "min" : [0.034060001373291016, -0.9773200154304504], "name" : "TEXCOORD_0"}, {"bufferView" : 0, "byteOffset" : 27216, "componentType" : 5123, "count" : 1056, "type" : "SCALAR", "max" : [1055], "min" : [0]}, {"bufferView" : 7, "byteOffset" : 0, "componentType" : 5126, "count" : 1056, "type" : "VEC3", "max" : [-1.0070300102233887, 4.8673601150512695, 2.1401400566101074], "min" : [-1.920050024986267, 3.912709951400757, 1.2113900184631348], "name" : "POSITION"}, {"bufferView" : 7, "byteOffset" : 12, "componentType" : 5126, "count" : 1056, "type" : "VEC3", "max" : [0.9855219125747681, 0.9993611574172974, 0.9982313513755798], "min" : [-0.9991051554679871, -0.9991377592086792, -0.9799144864082336], "name" : "NORMAL"}, {"bufferView" : 7, "byteOffset" : 24, "componentType" : 5126, "count" : 1056, "type" : "VEC2", "max" : [0.9953100085258484, -0], "min" : [0.004679999779909849, -1], "name" : "TEXCOORD_0"}, {"bufferView" : 0, "byteOffset" : 29328, "componentType" : 5123, "count" : 1056, "type" : "SCALAR", "max" : [1055], "min" : [0]}, {"bufferView" : 8, "byteOffset" : 0, "componentType" : 5126, "count" : 1056, "type" : "VEC3", "max" : [1.920050024986267, 4.8673601150512695, 2.1401400566101074], "min" : [1.0070300102233887, 3.912709951400757, 1.2113900184631348], "name" : "POSITION"}, {"bufferView" : 8, "byteOffset" : 12, "componentType" : 5126, "count" : 1056, "type" : "VEC3", "max" : [0.9991050958633423, 0.9993611574172974, 0.9982314109802246], "min" : [-0.9855218529701233, -0.9991377592086792, -0.9799144864082336], "name" : "NORMAL"}, {"bufferView" : 8, "byteOffset" : 24, "componentType" : 5126, "count" : 1056, "type" : "VEC2", "max" : [0.9953100085258484, -0], "min" : [0.004679999779909849, -1], "name" : "TEXCOORD_0"}], "asset" : {"generator" : "Aspose.3D 21.10", "version" : "2.0"}, "buffers" : [{"uri" : "data:application/octet-stream;base64,", "byteLength" : 534516}], "bufferViews" : [{"buffer" : 0, "byteOffset" : 0, "byteLength" : 31440, "target" : 34963}, {"buffer" : 0, "byteOffset" : 31444, "byteLength" : 96384, "byteStride" : 32, "target" : 34962}, {"buffer" : 0, "byteOffset" : 127832, "byteLength" : 77184, "byteStride" : 32, "target" : 34962}, {"buffer" : 0, "byteOffset" : 205020, "byteLength" : 11520, "byteStride" : 32, "target" : 34962}, {"buffer" : 0, "byteOffset" : 216544, "byteLength" : 213504, "byteStride" : 32, "target" : 34962}, {"buffer" : 0, "byteOffset" : 430052, "byteLength" : 18432, "byteStride" : 32, "target" : 34962}, {"buffer" : 0, "byteOffset" : 448488, "byteLength" : 18432, "byteStride" : 32, "target" : 34962}, {"buffer" : 0, "byteOffset" : 466924, "byteLength" : 33792, "byteStride" : 32, "target" : 34962}, {"buffer" : 0, "byteOffset" : 500720, "byteLength" : 33792, "byteStride" : 32, "target" : 34962}], "materials" : [{"name" : "", "pbrMetallicRoughness" : {"baseColorFactor" : [0, 0, 0, 1], "metallicFactor" : 0, "roughnessFactor" : 0}, "emissiveFactor" : [0, 0, 0], "alphaMode" : "OPAQUE", "doubleSided" : false}, {"name" : "", "pbrMetallicRoughness" : {"baseColorFactor" : [0, 0, 0, 1], "metallicFactor" : 0, "roughnessFactor" : 0}, "emissiveFactor" : [0, 0, 0], "alphaMode" : "OPAQUE", "doubleSided" : false}, {"name" : "", "pbrMetallicRoughness" : {"baseColorFactor" : [0.5, 0.5, 0.5, 1], "metallicFactor" : 0, "roughnessFactor" : 0}, "emissiveFactor" : [0, 0, 0], "alphaMode" : "OPAQUE", "doubleSided" : false}, {"name" : "", "pbrMetallicRoughness" : {"baseColorFactor" : [0, 0, 0, 1], "metallicFactor" : 0, "roughnessFactor" : 0}, "emissiveFactor" : [0, 0, 0], "alphaMode" : "OPAQUE", "doubleSided" : false}, {"name" : "", "pbrMetallicRoughness" : {"baseColorFactor" : [0, 0, 0, 1], "metallicFactor" : 0, "roughnessFactor" : 0}, "emissiveFactor" : [0, 0, 0], "alphaMode" : "OPAQUE", "doubleSided" : false}, {"name" : "", "pbrMetallicRoughness" : {"baseColorFactor" : [0, 0, 0, 1], "metallicFactor" : 0, "roughnessFactor" : 0}, "emissiveFactor" : [0, 0, 0], "alphaMode" : "OPAQUE", "doubleSided" : false}, {"name" : "", "pbrMetallicRoughness" : {"baseColorFactor" : [0, 0, 0, 1], "metallicFactor" : 0, "roughnessFactor" : 0}, "emissiveFactor" : [0, 0, 0], "alphaMode" : "OPAQUE", "doubleSided" : false}, {"name" : "", "pbrMetallicRoughness" : {"baseColorFactor" : [0, 0, 0, 1], "metallicFactor" : 0, "roughnessFactor" : 0}, "emissiveFactor" : [0, 0, 0], "alphaMode" : "OPAQUE", "doubleSided" : false}], "meshes" : [{"primitives" : [{"attributes" : {"POSITION" : 1, "NORMAL" : 2, "TEXCOORD_0" : 3}, "indices" : 0, "material" : 0, "mode" : 4}], "name" : "Geometry"}, {"primitives" : [{"attributes" : {"POSITION" : 5, "NORMAL" : 6, "TEXCOORD_0" : 7}, "indices" : 4, "material" : 1, "mode" : 4}], "name" : "Geometry"}, {"primitives" : [{"attributes" : {"POSITION" : 9, "NORMAL" : 10, "TEXCOORD_0" : 11}, "indices" : 8, "material" : 2, "mode" : 4}], "name" : "Geometry"}, {"primitives" : [{"attributes" : {"POSITION" : 13, "NORMAL" : 14, "TEXCOORD_0" : 15}, "indices" : 12, "material" : 3, "mode" : 4}], "name" : "Geometry"}, {"primitives" : [{"attributes" : {"POSITION" : 17, "NORMAL" : 18, "TEXCOORD_0" : 19}, "indices" : 16, "material" : 4, "mode" : 4}], "name" : "Geometry"}, {"primitives" : [{"attributes" : {"POSITION" : 21, "NORMAL" : 22, "TEXCOORD_0" : 23}, "indices" : 20, "material" : 5, "mode" : 4}], "name" : "Geometry"}, {"primitives" : [{"attributes" : {"POSITION" : 25, "NORMAL" : 26, "TEXCOORD_0" : 27}, "indices" : 24, "material" : 6, "mode" : 4}], "name" : "Geometry"}, {"primitives" : [{"attributes" : {"POSITION" : 29, "NORMAL" : 30, "TEXCOORD_0" : 31}, "indices" : 28, "material" : 7, "mode" : 4}], "name" : "Geometry"}], "nodes" : [{"mesh" : 0, "name" : "Model"}, {"mesh" : 1, "name" : "Model"}, {"mesh" : 2, "name" : "Model"}, {"mesh" : 3, "name" : "Model"}, {"mesh" : 4, "name" : "Model"}, {"mesh" : 5, "name" : "Model"}, {"mesh" : 6, "name" : "Model"}, {"mesh" : 7, "name" : "Model"}], "scene" : 0, "scenes" : [{"nodes" : [0, 1, 2, 3, 4, 5, 6, 7]}]}