{"asset":{"version":"2.0","generator":"babylon.js glTF exporter for Autodesk Maya 2019 v20210811.2"},"scene":0,"scenes":[{"nodes":[0,1,2,3,4,5,6]}],"nodes":[{"skin":0,"mesh":0,"name":"UppTeeth","extras":{"GoZBrushID":"UppTeeth"}},{"skin":1,"mesh":1,"name":"LwrTeeth","extras":{"GoZBrushID":"LwrTeeth"}},{"skin":2,"mesh":2,"name":"Tongue","extras":{"GoZBrushID":"Tongue"}},{"skin":3,"mesh":3,"name":"Shark_new","extras":{"GoZBrushID":"Shark1"}},{"skin":4,"mesh":4,"name":"R_eye1_MESH"},{"skin":5,"mesh":5,"name":"L_iris1_MESH"},{"children":[7,16],"translation":[0.0,0.04488491,-0.003136403],"rotation":[0.002534316,0.7071022,0.00253431615,0.707102239],"scale":[0.99999994,1.0,1.0],"name":"M_root_AJ"},{"children":[8,13,14,15],"translation":[-0.00080334727,8.687404E-05,9.860761E-34],"rotation":[0.120828174,-0.992620051,0.00506413728,0.008965113],"scale":[1.0,1.0,1.00000012],"name":"M_head_AJ"},{"children":[9],"translation":[0.00112715561,-0.007633302,7.065682E-19],"rotation":[0.0,0.0,-0.187462345,0.9822718],"name":"M_jaw_AJ"},{"children":[10],"translation":[-0.00208270224,-0.00523674767,1.38777875E-19],"rotation":[0.0,0.0,0.349424034,0.93696475],"scale":[0.99999994,0.99999994,1.0],"name":"M_tongue_AJ"},{"children":[11],"translation":[0.009144801,-7.771561E-18,-6.93889349E-19],"rotation":[0.0,0.0,-0.2506948,0.968066156],"name":"M_tongue1_AJ"},{"children":[12],"translation":[0.006731709,-1.58206779E-17,-9.020562E-19],"rotation":[0.0,0.0,-0.09238096,0.9957237],"name":"M_tongue2_AJ"},{"translation":[0.005300685,4.718448E-18,-8.3266725E-19],"rotation":[0.0,0.0,0.0212286972,0.999774635],"scale":[0.99999994,0.99999994,1.0],"name":"M_tongue3_AJ"},{"translation":[0.03805117,0.0028369166,-2.6090241E-17],"rotation":[0.0,0.0,-0.08653714,0.996248662],"name":"M_nose_AJ"},{"translation":[0.0188229345,0.00373114529,0.0148239005],"rotation":[-0.7020443,-0.08422046,0.7010084,-0.0928867161],"name":"R_eye_AJ"},{"translation":[0.0188229941,0.00373110943,-0.0148239005],"rotation":[-0.09290428,0.7010062,0.08424416,0.7020414],"scale":[1.0,0.99999994,0.99999994],"name":"L_eye_AJ"},{"children":[17,24,25,26],"rotation":[6.235858E-05,0.0329307951,-0.000602045562,0.9994574],"name":"M_body_AJ"},{"children":[18],"translation":[0.0216514822,2.6645352E-17,1.38083989E-17],"rotation":[0.000257090054,0.0329289176,-0.00780295441,0.9994272],"scale":[0.99999994,1.0,1.0],"name":"M_body1_AJ"},{"children":[19],"translation":[0.0164257158,-1.7763568E-17,8.049117E-18],"rotation":[-0.00042389505,0.0282532386,0.0149957361,0.999488235],"name":"M_body2_AJ"},{"children":[20,22],"translation":[0.0216114782,0.00217705686,0.000662158767],"rotation":[-0.7796626,-0.006019588,0.062873,0.623006463],"name":"M_body3_AJ"},{"children":[21],"translation":[0.02109706,8.631668E-05,0.006520865],"rotation":[-0.07497558,-0.471250445,-0.104722872,0.872545063],"scale":[1.0,1.0,0.99999994],"name":"L_tail_AJ"},{"translation":[0.01712733,0.00208330457,-0.00335806422],"rotation":[-0.0220509935,0.137735724,0.0361588672,0.989563167],"name":"L_tail1_AJ"},{"children":[23],"translation":[0.0154442247,-0.00131014909,-0.004269432],"rotation":[0.460351139,-0.121617727,0.8791142,0.0210748836],"scale":[1.00000012,1.0,1.0],"name":"R_tail_AJ"},{"translation":[-0.0141901346,7.765447E-09,-1.462174E-08],"rotation":[0.0194968,0.139262646,0.15267247,0.978221357],"name":"R_tail1_AJ"},{"translation":[0.0101586664,0.01935388,-9.089951E-18],"rotation":[0.0,0.0,0.349783182,0.9368307],"name":"M_fin_AJ"},{"translation":[0.0130405985,-0.009348328,0.0208679214],"rotation":[0.02946924,-0.585786939,-0.0464909859,0.80859375],"name":"L_fin_AJ"},{"translation":[0.0130406218,-0.009348363,-0.0208679],"rotation":[0.585786939,0.02946924,0.80859375,0.0464909859],"name":"R_fin_AJ"}],"meshes":[{"primitives":[{"attributes":{"POSITION":1,"TANGENT":2,"NORMAL":3,"TEXCOORD_0":4,"JOINTS_0":5,"WEIGHTS_0":6},"indices":0,"material":0}],"name":"UppTeeth"},{"primitives":[{"attributes":{"POSITION":8,"TANGENT":9,"NORMAL":10,"TEXCOORD_0":11,"JOINTS_0":12,"WEIGHTS_0":13},"indices":7,"material":0}],"name":"LwrTeeth"},{"primitives":[{"attributes":{"POSITION":15,"TANGENT":16,"NORMAL":17,"TEXCOORD_0":18,"JOINTS_0":19,"WEIGHTS_0":20},"indices":14,"material":1}],"name":"Tongue"},{"primitives":[{"attributes":{"POSITION":22,"TANGENT":23,"NORMAL":24,"TEXCOORD_0":25,"JOINTS_0":26,"JOINTS_1":27,"WEIGHTS_0":28,"WEIGHTS_1":29},"indices":21,"material":2}],"name":"Shark_new"},{"primitives":[{"attributes":{"POSITION":31,"TANGENT":32,"NORMAL":33,"TEXCOORD_0":34,"JOINTS_0":35,"WEIGHTS_0":36},"indices":30,"material":3}],"name":"R_eye1_MESH"},{"primitives":[{"attributes":{"POSITION":38,"TANGENT":39,"NORMAL":40,"TEXCOORD_0":41,"JOINTS_0":42,"WEIGHTS_0":43},"indices":37,"material":3}],"name":"L_iris1_MESH"}],"accessors":[{"bufferView":0,"componentType":5123,"count":3012,"type":"SCALAR","name":"accessorIndices"},{"bufferView":1,"componentType":5126,"count":1100,"max":[0.0165776722,0.04123683,0.0281377565],"min":[-0.0159606244,0.0261033364,0.008920294],"type":"VEC3","name":"accessorPositions"},{"bufferView":2,"componentType":5126,"count":1100,"type":"VEC4","name":"accessorTangents"},{"bufferView":1,"byteOffset":13200,"componentType":5126,"count":1100,"type":"VEC3","name":"accessorNormals"},{"bufferView":3,"componentType":5126,"count":1100,"type":"VEC2","name":"accessorUVs"},{"bufferView":4,"componentType":5123,"count":1100,"type":"VEC4","name":"accessorJoints"},{"bufferView":2,"byteOffset":17600,"componentType":5126,"count":1100,"type":"VEC4","name":"accessorWeights"},{"bufferView":0,"byteOffset":6024,"componentType":5123,"count":2412,"type":"SCALAR","name":"accessorIndices"},{"bufferView":1,"byteOffset":26400,"componentType":5126,"count":920,"max":[0.01113684,0.0350327045,0.0214216579],"min":[-0.0104471808,0.0229925085,0.00739857042],"type":"VEC3","name":"accessorPositions"},{"bufferView":2,"byteOffset":35200,"componentType":5126,"count":920,"type":"VEC4","name":"accessorTangents"},{"bufferView":1,"byteOffset":37440,"componentType":5126,"count":920,"type":"VEC3","name":"accessorNormals"},{"bufferView":3,"byteOffset":8800,"componentType":5126,"count":920,"type":"VEC2","name":"accessorUVs"},{"bufferView":4,"byteOffset":8800,"componentType":5123,"count":920,"type":"VEC4","name":"accessorJoints"},{"bufferView":2,"byteOffset":49920,"componentType":5126,"count":920,"type":"VEC4","name":"accessorWeights"},{"bufferView":0,"byteOffset":10848,"componentType":5123,"count":360,"type":"SCALAR","name":"accessorIndices"},{"bufferView":1,"byteOffset":48480,"componentType":5126,"count":105,"max":[0.010886861,0.03754671,0.0171397757],"min":[-0.0108215353,0.0262243,-0.0104777124],"type":"VEC3","name":"accessorPositions"},{"bufferView":2,"byteOffset":64640,"componentType":5126,"count":105,"type":"VEC4","name":"accessorTangents"},{"bufferView":1,"byteOffset":49740,"componentType":5126,"count":105,"type":"VEC3","name":"accessorNormals"},{"bufferView":3,"byteOffset":16160,"componentType":5126,"count":105,"type":"VEC2","name":"accessorUVs"},{"bufferView":4,"byteOffset":16160,"componentType":5123,"count":105,"type":"VEC4","name":"accessorJoints"},{"bufferView":2,"byteOffset":66320,"componentType":5126,"count":105,"type":"VEC4","name":"accessorWeights"},{"bufferView":0,"byteOffset":11568,"componentType":5123,"count":6672,"type":"SCALAR","name":"accessorIndices"},{"bufferView":1,"byteOffset":51000,"componentType":5126,"count":1236,"max":[0.04023538,0.08496555,0.0428699926],"min":[-0.04311415,0.0199552588,-0.108682804],"type":"VEC3","name":"accessorPositions"},{"bufferView":2,"byteOffset":68000,"componentType":5126,"count":1236,"type":"VEC4","name":"accessorTangents"},{"bufferView":1,"byteOffset":65832,"componentType":5126,"count":1236,"type":"VEC3","name":"accessorNormals"},{"bufferView":3,"byteOffset":17000,"componentType":5126,"count":1236,"type":"VEC2","name":"accessorUVs"},{"bufferView":4,"byteOffset":17000,"componentType":5123,"count":1236,"type":"VEC4","name":"accessorJoints"},{"bufferView":4,"byteOffset":26888,"componentType":5123,"count":1236,"type":"VEC4","name":"accessorJointsExtra"},{"bufferView":2,"byteOffset":87776,"componentType":5126,"count":1236,"type":"VEC4","name":"accessorWeights"},{"bufferView":2,"byteOffset":107552,"componentType":5126,"count":1236,"type":"VEC4","name":"accessorWeightsExtra"},{"bufferView":0,"byteOffset":24912,"componentType":5123,"count":1056,"type":"SCALAR","name":"accessorIndices"},{"bufferView":1,"byteOffset":80664,"componentType":5126,"count":233,"max":[-0.009753872,0.0485275537,0.0216347743],"min":[-0.01888437,0.03898107,0.0123383841],"type":"VEC3","name":"accessorPositions"},{"bufferView":2,"byteOffset":127328,"componentType":5126,"count":233,"type":"VEC4","name":"accessorTangents"},{"bufferView":1,"byteOffset":83460,"componentType":5126,"count":233,"type":"VEC3","name":"accessorNormals"},{"bufferView":3,"byteOffset":26888,"componentType":5126,"count":233,"type":"VEC2","name":"accessorUVs"},{"bufferView":4,"byteOffset":36776,"componentType":5123,"count":233,"type":"VEC4","name":"accessorJoints"},{"bufferView":2,"byteOffset":131056,"componentType":5126,"count":233,"type":"VEC4","name":"accessorWeights"},{"bufferView":0,"byteOffset":27024,"componentType":5123,"count":1056,"type":"SCALAR","name":"accessorIndices"},{"bufferView":1,"byteOffset":86256,"componentType":5126,"count":233,"max":[0.0195091479,0.048893366,0.0211648773],"min":[0.0103817452,0.03934688,0.0118649276],"type":"VEC3","name":"accessorPositions"},{"bufferView":2,"byteOffset":134784,"componentType":5126,"count":233,"type":"VEC4","name":"accessorTangents"},{"bufferView":1,"byteOffset":89052,"componentType":5126,"count":233,"type":"VEC3","name":"accessorNormals"},{"bufferView":3,"byteOffset":28752,"componentType":5126,"count":233,"type":"VEC2","name":"accessorUVs"},{"bufferView":4,"byteOffset":38640,"componentType":5123,"count":233,"type":"VEC4","name":"accessorJoints"},{"bufferView":2,"byteOffset":138512,"componentType":5126,"count":233,"type":"VEC4","name":"accessorWeights"},{"bufferView":5,"componentType":5126,"count":2,"type":"MAT4","name":"accessorInverseBindMatrices"},{"bufferView":5,"byteOffset":128,"componentType":5126,"count":3,"type":"MAT4","name":"accessorInverseBindMatrices"},{"bufferView":5,"byteOffset":320,"componentType":5126,"count":7,"type":"MAT4","name":"accessorInverseBindMatrices"},{"bufferView":5,"byteOffset":768,"componentType":5126,"count":15,"type":"MAT4","name":"accessorInverseBindMatrices"},{"bufferView":5,"byteOffset":1728,"componentType":5126,"count":3,"type":"MAT4","name":"accessorInverseBindMatrices"},{"bufferView":5,"byteOffset":1920,"componentType":5126,"count":3,"type":"MAT4","name":"accessorInverseBindMatrices"},{"bufferView":6,"componentType":5126,"count":20,"max":[0.7916667],"min":[0.0],"type":"SCALAR","name":"accessorAnimationInput"},{"bufferView":7,"componentType":5126,"count":20,"type":"VEC3","name":"accessorAnimationPositions"},{"bufferView":8,"componentType":5126,"count":20,"type":"VEC4","name":"accessorAnimationRotations"},{"bufferView":7,"byteOffset":240,"componentType":5126,"count":20,"type":"VEC3","name":"accessorAnimationScales"},{"bufferView":6,"byteOffset":80,"componentType":5126,"count":20,"max":[0.7916667],"min":[0.0],"type":"SCALAR","name":"accessorAnimationInput"},{"bufferView":7,"byteOffset":480,"componentType":5126,"count":20,"type":"VEC3","name":"accessorAnimationPositions"},{"bufferView":8,"byteOffset":320,"componentType":5126,"count":20,"type":"VEC4","name":"accessorAnimationRotations"},{"bufferView":7,"byteOffset":720,"componentType":5126,"count":20,"type":"VEC3","name":"accessorAnimationScales"},{"bufferView":6,"byteOffset":160,"componentType":5126,"count":20,"max":[0.7916667],"min":[0.0],"type":"SCALAR","name":"accessorAnimationInput"},{"bufferView":7,"byteOffset":960,"componentType":5126,"count":20,"type":"VEC3","name":"accessorAnimationPositions"},{"bufferView":8,"byteOffset":640,"componentType":5126,"count":20,"type":"VEC4","name":"accessorAnimationRotations"},{"bufferView":7,"byteOffset":1200,"componentType":5126,"count":20,"type":"VEC3","name":"accessorAnimationScales"},{"bufferView":6,"byteOffset":240,"componentType":5126,"count":20,"max":[0.7916667],"min":[0.0],"type":"SCALAR","name":"accessorAnimationInput"},{"bufferView":7,"byteOffset":1440,"componentType":5126,"count":20,"type":"VEC3","name":"accessorAnimationPositions"},{"bufferView":8,"byteOffset":960,"componentType":5126,"count":20,"type":"VEC4","name":"accessorAnimationRotations"},{"bufferView":7,"byteOffset":1680,"componentType":5126,"count":20,"type":"VEC3","name":"accessorAnimationScales"},{"bufferView":6,"byteOffset":320,"componentType":5126,"count":20,"max":[0.7916667],"min":[0.0],"type":"SCALAR","name":"accessorAnimationInput"},{"bufferView":7,"byteOffset":1920,"componentType":5126,"count":20,"type":"VEC3","name":"accessorAnimationPositions"},{"bufferView":8,"byteOffset":1280,"componentType":5126,"count":20,"type":"VEC4","name":"accessorAnimationRotations"},{"bufferView":7,"byteOffset":2160,"componentType":5126,"count":20,"type":"VEC3","name":"accessorAnimationScales"},{"bufferView":6,"byteOffset":400,"componentType":5126,"count":20,"max":[0.7916667],"min":[0.0],"type":"SCALAR","name":"accessorAnimationInput"},{"bufferView":7,"byteOffset":2400,"componentType":5126,"count":20,"type":"VEC3","name":"accessorAnimationPositions"},{"bufferView":8,"byteOffset":1600,"componentType":5126,"count":20,"type":"VEC4","name":"accessorAnimationRotations"},{"bufferView":7,"byteOffset":2640,"componentType":5126,"count":20,"type":"VEC3","name":"accessorAnimationScales"},{"bufferView":6,"byteOffset":480,"componentType":5126,"count":20,"max":[0.7916667],"min":[0.0],"type":"SCALAR","name":"accessorAnimationInput"},{"bufferView":7,"byteOffset":2880,"componentType":5126,"count":20,"type":"VEC3","name":"accessorAnimationPositions"},{"bufferView":8,"byteOffset":1920,"componentType":5126,"count":20,"type":"VEC4","name":"accessorAnimationRotations"},{"bufferView":7,"byteOffset":3120,"componentType":5126,"count":20,"type":"VEC3","name":"accessorAnimationScales"},{"bufferView":6,"byteOffset":560,"componentType":5126,"count":20,"max":[0.7916667],"min":[0.0],"type":"SCALAR","name":"accessorAnimationInput"},{"bufferView":7,"byteOffset":3360,"componentType":5126,"count":20,"type":"VEC3","name":"accessorAnimationPositions"},{"bufferView":8,"byteOffset":2240,"componentType":5126,"count":20,"type":"VEC4","name":"accessorAnimationRotations"},{"bufferView":7,"byteOffset":3600,"componentType":5126,"count":20,"type":"VEC3","name":"accessorAnimationScales"},{"bufferView":6,"byteOffset":640,"componentType":5126,"count":20,"max":[0.7916667],"min":[0.0],"type":"SCALAR","name":"accessorAnimationInput"},{"bufferView":7,"byteOffset":3840,"componentType":5126,"count":20,"type":"VEC3","name":"accessorAnimationPositions"},{"bufferView":8,"byteOffset":2560,"componentType":5126,"count":20,"type":"VEC4","name":"accessorAnimationRotations"},{"bufferView":7,"byteOffset":4080,"componentType":5126,"count":20,"type":"VEC3","name":"accessorAnimationScales"},{"bufferView":6,"byteOffset":720,"componentType":5126,"count":20,"max":[0.7916667],"min":[0.0],"type":"SCALAR","name":"accessorAnimationInput"},{"bufferView":7,"byteOffset":4320,"componentType":5126,"count":20,"type":"VEC3","name":"accessorAnimationPositions"},{"bufferView":8,"byteOffset":2880,"componentType":5126,"count":20,"type":"VEC4","name":"accessorAnimationRotations"},{"bufferView":7,"byteOffset":4560,"componentType":5126,"count":20,"type":"VEC3","name":"accessorAnimationScales"},{"bufferView":6,"byteOffset":800,"componentType":5126,"count":20,"max":[0.7916667],"min":[0.0],"type":"SCALAR","name":"accessorAnimationInput"},{"bufferView":7,"byteOffset":4800,"componentType":5126,"count":20,"type":"VEC3","name":"accessorAnimationPositions"},{"bufferView":8,"byteOffset":3200,"componentType":5126,"count":20,"type":"VEC4","name":"accessorAnimationRotations"},{"bufferView":7,"byteOffset":5040,"componentType":5126,"count":20,"type":"VEC3","name":"accessorAnimationScales"}],"bufferViews":[{"buffer":0,"byteLength":29136,"name":"bufferViewScalar"},{"buffer":0,"byteOffset":29136,"byteLength":91848,"byteStride":12,"name":"bufferViewFloatVec3"},{"buffer":0,"byteOffset":120984,"byteLength":142240,"byteStride":16,"name":"bufferViewFloatVec4"},{"buffer":0,"byteOffset":263224,"byteLength":30616,"byteStride":8,"name":"bufferViewFloatVec2"},{"buffer":0,"byteOffset":293840,"byteLength":40504,"byteStride":8,"name":"bufferViewUnsignedShortVec4"},{"buffer":0,"byteOffset":334344,"byteLength":2112,"name":"bufferViewFloatMat4"},{"buffer":0,"byteOffset":336456,"byteLength":880,"name":"bufferViewAnimationFloatScalar"},{"buffer":0,"byteOffset":337336,"byteLength":5280,"name":"bufferViewAnimationFloatVec3"},{"buffer":0,"byteOffset":342616,"byteLength":3520,"name":"bufferViewAnimationFloatVec4"}],"buffers":[{"uri":"shark_simple_anim_v02.bin","byteLength":346136}],"materials":[{"pbrMetallicRoughness":{"baseColorFactor":[0.8,0.16,0.16,1.0],"metallicFactor":0.0,"roughnessFactor":0.3},"name":"ai_Shark_Teeth"},{"pbrMetallicRoughness":{"baseColorFactor":[0.5,0.5,0.5,1.0],"metallicFactor":0.0,"roughnessFactor":0.450053632},"name":"lambert1"},{"pbrMetallicRoughness":{"baseColorTexture":{"index":0},"metallicFactor":0.0,"roughnessFactor":0.450053632},"doubleSided":true,"name":"lambert2"},{"pbrMetallicRoughness":{"baseColorTexture":{"index":1},"metallicFactor":0.0,"roughnessFactor":0.450053632},"doubleSided":true,"name":"lambert3"}],"textures":[{"sampler":0,"source":0,"name":"Shark_Body_D.jpg"},{"sampler":0,"source":1,"name":"Shark_Pupil_D.jpg"}],"images":[{"uri":"Shark_Body_D.jpg"},{"uri":"Shark_Pupil_D.jpg"}],"samplers":[{"magFilter":9729,"minFilter":9987}],"animations":[{"channels":[{"sampler":0,"target":{"node":7,"path":"translation"}},{"sampler":1,"target":{"node":7,"path":"rotation"}},{"sampler":2,"target":{"node":7,"path":"scale"}},{"sampler":3,"target":{"node":14,"path":"translation"}},{"sampler":4,"target":{"node":14,"path":"rotation"}},{"sampler":5,"target":{"node":14,"path":"scale"}},{"sampler":6,"target":{"node":15,"path":"translation"}},{"sampler":7,"target":{"node":15,"path":"rotation"}},{"sampler":8,"target":{"node":15,"path":"scale"}},{"sampler":9,"target":{"node":16,"path":"translation"}},{"sampler":10,"target":{"node":16,"path":"rotation"}},{"sampler":11,"target":{"node":16,"path":"scale"}},{"sampler":12,"target":{"node":17,"path":"translation"}},{"sampler":13,"target":{"node":17,"path":"rotation"}},{"sampler":14,"target":{"node":17,"path":"scale"}},{"sampler":15,"target":{"node":18,"path":"translation"}},{"sampler":16,"target":{"node":18,"path":"rotation"}},{"sampler":17,"target":{"node":18,"path":"scale"}},{"sampler":18,"target":{"node":19,"path":"translation"}},{"sampler":19,"target":{"node":19,"path":"rotation"}},{"sampler":20,"target":{"node":19,"path":"scale"}},{"sampler":21,"target":{"node":20,"path":"translation"}},{"sampler":22,"target":{"node":20,"path":"rotation"}},{"sampler":23,"target":{"node":20,"path":"scale"}},{"sampler":24,"target":{"node":21,"path":"translation"}},{"sampler":25,"target":{"node":21,"path":"rotation"}},{"sampler":26,"target":{"node":21,"path":"scale"}},{"sampler":27,"target":{"node":22,"path":"translation"}},{"sampler":28,"target":{"node":22,"path":"rotation"}},{"sampler":29,"target":{"node":22,"path":"scale"}},{"sampler":30,"target":{"node":23,"path":"translation"}},{"sampler":31,"target":{"node":23,"path":"rotation"}},{"sampler":32,"target":{"node":23,"path":"scale"}}],"samplers":[{"input":50,"output":51},{"input":50,"output":52},{"input":50,"output":53},{"input":54,"output":55},{"input":54,"output":56},{"input":54,"output":57},{"input":58,"output":59},{"input":58,"output":60},{"input":58,"output":61},{"input":62,"output":63},{"input":62,"output":64},{"input":62,"output":65},{"input":66,"output":67},{"input":66,"output":68},{"input":66,"output":69},{"input":70,"output":71},{"input":70,"output":72},{"input":70,"output":73},{"input":74,"output":75},{"input":74,"output":76},{"input":74,"output":77},{"input":78,"output":79},{"input":78,"output":80},{"input":78,"output":81},{"input":82,"output":83},{"input":82,"output":84},{"input":82,"output":85},{"input":86,"output":87},{"input":86,"output":88},{"input":86,"output":89},{"input":90,"output":91},{"input":90,"output":92},{"input":90,"output":93}],"name":"All Animations"}],"skins":[{"inverseBindMatrices":44,"skeleton":6,"joints":[6,7],"name":"skeleton #0"},{"inverseBindMatrices":45,"skeleton":6,"joints":[6,7,8],"name":"skeleton #1"},{"inverseBindMatrices":46,"skeleton":6,"joints":[6,7,8,9,10,11,12],"name":"skeleton #2"},{"inverseBindMatrices":47,"skeleton":6,"joints":[6,16,17,18,19,20,21,22,23,24,25,26,7,13,8],"name":"skeleton #3"},{"inverseBindMatrices":48,"skeleton":6,"joints":[6,7,14],"name":"skeleton #4"},{"inverseBindMatrices":49,"skeleton":6,"joints":[6,7,15],"name":"skeleton #5"}]}