{"asset":{"version":"2.0","generator":"babylon.js glTF exporter for 3dsmax 2022 v20210802.1"},"scene":0,"scenes":[{"nodes":[0,1]}],"nodes":[{"skin":0,"mesh":0,"name":"body"},{"children":[2,5],"translation":[-2.40333629,-0.0429721624,-1.87837279E-09],"rotation":[0.7116437,0.0169705469,-0.04447587,0.700925946],"name":"Bip01"},{"children":[3],"translation":[1.24258852,0.0,5.245209E-07],"rotation":[4.84208322E-05,0.00255227927,0.0189407319,0.999817431],"scale":[1.00000024,1.00000036,1.00000012],"name":"Bone002"},{"children":[4],"translation":[1.24450183,0.0,-2.28881831E-07],"rotation":[-0.00116684963,-0.01131494,0.06483059,0.9978314],"scale":[0.99999994,1.0,1.00000024],"name":"Bone003"},{"translation":[1.17976749,-1.52587887E-07,-4.7683713E-08],"rotation":[0.00547640538,0.0257332288,0.064547956,0.9975677],"scale":[0.9999998,1.00000012,1.00000024],"name":"Bone004"},{"children":[6,7],"translation":[1.24259424,0.0,0.0],"rotation":[5.0676805E-09,-0.9992868,1.18362379E-07,0.0377611],"scale":[1.00000024,1.0,1.00000012],"name":"B_head"},{"translation":[0.2764808,0.6227932,-0.2375139],"rotation":[0.09758487,0.69621,0.7003408,0.123659045],"scale":[0.99999994,0.9999999,0.99999994],"name":"Bone006(mirrored)"},{"translation":[0.276480645,-0.6264873,-0.2375139],"rotation":[0.123658985,-0.7003407,-0.696210146,0.09758493],"scale":[0.9999999,0.9999999,1.00000012],"name":"Bone006"}],"meshes":[{"primitives":[{"attributes":{"POSITION":1,"NORMAL":2,"TEXCOORD_0":3,"JOINTS_0":4,"WEIGHTS_0":5},"indices":0,"material":0}],"name":"body"}],"accessors":[{"bufferView":0,"componentType":5123,"count":930,"type":"SCALAR","name":"accessorIndices"},{"bufferView":1,"componentType":5126,"count":930,"max":[2.3318913,0.741759,0.7593654],"min":[-2.363531,-0.767481744,-1.08241868],"type":"VEC3","name":"accessorPositions"},{"bufferView":1,"byteOffset":11160,"componentType":5126,"count":930,"type":"VEC3","name":"accessorNormals"},{"bufferView":2,"componentType":5126,"count":930,"type":"VEC2","name":"accessorUVs"},{"bufferView":3,"componentType":5123,"count":930,"type":"VEC4","name":"accessorJoints"},{"bufferView":4,"componentType":5126,"count":930,"type":"VEC4","name":"accessorWeights"},{"bufferView":5,"componentType":5126,"count":7,"type":"MAT4","name":"accessorInverseBindMatrices"},{"bufferView":6,"componentType":5126,"count":25,"max":[0.8],"min":[0.0],"type":"SCALAR","name":"accessorAnimationInput"},{"bufferView":7,"componentType":5126,"count":25,"type":"VEC3","name":"accessorAnimationPositions"},{"bufferView":8,"componentType":5126,"count":25,"type":"VEC4","name":"accessorAnimationRotations"},{"bufferView":7,"byteOffset":300,"componentType":5126,"count":25,"type":"VEC3","name":"accessorAnimationScales"},{"bufferView":6,"byteOffset":100,"componentType":5126,"count":25,"max":[0.8],"min":[0.0],"type":"SCALAR","name":"accessorAnimationInput"},{"bufferView":7,"byteOffset":600,"componentType":5126,"count":25,"type":"VEC3","name":"accessorAnimationPositions"},{"bufferView":8,"byteOffset":400,"componentType":5126,"count":25,"type":"VEC4","name":"accessorAnimationRotations"},{"bufferView":7,"byteOffset":900,"componentType":5126,"count":25,"type":"VEC3","name":"accessorAnimationScales"},{"bufferView":6,"byteOffset":200,"componentType":5126,"count":25,"max":[0.8],"min":[0.0],"type":"SCALAR","name":"accessorAnimationInput"},{"bufferView":7,"byteOffset":1200,"componentType":5126,"count":25,"type":"VEC3","name":"accessorAnimationPositions"},{"bufferView":8,"byteOffset":800,"componentType":5126,"count":25,"type":"VEC4","name":"accessorAnimationRotations"},{"bufferView":7,"byteOffset":1500,"componentType":5126,"count":25,"type":"VEC3","name":"accessorAnimationScales"},{"bufferView":6,"byteOffset":300,"componentType":5126,"count":25,"max":[0.8],"min":[0.0],"type":"SCALAR","name":"accessorAnimationInput"},{"bufferView":7,"byteOffset":1800,"componentType":5126,"count":25,"type":"VEC3","name":"accessorAnimationPositions"},{"bufferView":8,"byteOffset":1200,"componentType":5126,"count":25,"type":"VEC4","name":"accessorAnimationRotations"},{"bufferView":7,"byteOffset":2100,"componentType":5126,"count":25,"type":"VEC3","name":"accessorAnimationScales"},{"bufferView":6,"byteOffset":400,"componentType":5126,"count":2,"max":[0.8],"min":[0.0],"type":"SCALAR","name":"accessorAnimationInput"},{"bufferView":7,"byteOffset":2400,"componentType":5126,"count":2,"type":"VEC3","name":"accessorAnimationPositions"},{"bufferView":8,"byteOffset":1600,"componentType":5126,"count":2,"type":"VEC4","name":"accessorAnimationRotations"},{"bufferView":7,"byteOffset":2424,"componentType":5126,"count":2,"type":"VEC3","name":"accessorAnimationScales"},{"bufferView":6,"byteOffset":408,"componentType":5126,"count":25,"max":[0.8],"min":[0.0],"type":"SCALAR","name":"accessorAnimationInput"},{"bufferView":7,"byteOffset":2448,"componentType":5126,"count":25,"type":"VEC3","name":"accessorAnimationPositions"},{"bufferView":8,"byteOffset":1632,"componentType":5126,"count":25,"type":"VEC4","name":"accessorAnimationRotations"},{"bufferView":7,"byteOffset":2748,"componentType":5126,"count":25,"type":"VEC3","name":"accessorAnimationScales"},{"bufferView":6,"byteOffset":508,"componentType":5126,"count":25,"max":[0.8],"min":[0.0],"type":"SCALAR","name":"accessorAnimationInput"},{"bufferView":7,"byteOffset":3048,"componentType":5126,"count":25,"type":"VEC3","name":"accessorAnimationPositions"},{"bufferView":8,"byteOffset":2032,"componentType":5126,"count":25,"type":"VEC4","name":"accessorAnimationRotations"},{"bufferView":7,"byteOffset":3348,"componentType":5126,"count":25,"type":"VEC3","name":"accessorAnimationScales"},{"bufferView":6,"byteOffset":608,"componentType":5126,"count":17,"max":[0.533333361],"min":[0.0],"type":"SCALAR","name":"accessorAnimationInput"},{"bufferView":7,"byteOffset":3648,"componentType":5126,"count":17,"type":"VEC3","name":"accessorAnimationPositions"},{"bufferView":8,"byteOffset":2432,"componentType":5126,"count":17,"type":"VEC4","name":"accessorAnimationRotations"},{"bufferView":7,"byteOffset":3852,"componentType":5126,"count":17,"type":"VEC3","name":"accessorAnimationScales"},{"bufferView":6,"byteOffset":676,"componentType":5126,"count":17,"max":[0.533333361],"min":[0.0],"type":"SCALAR","name":"accessorAnimationInput"},{"bufferView":7,"byteOffset":4056,"componentType":5126,"count":17,"type":"VEC3","name":"accessorAnimationPositions"},{"bufferView":8,"byteOffset":2704,"componentType":5126,"count":17,"type":"VEC4","name":"accessorAnimationRotations"},{"bufferView":7,"byteOffset":4260,"componentType":5126,"count":17,"type":"VEC3","name":"accessorAnimationScales"},{"bufferView":6,"byteOffset":744,"componentType":5126,"count":17,"max":[0.533333361],"min":[0.0],"type":"SCALAR","name":"accessorAnimationInput"},{"bufferView":7,"byteOffset":4464,"componentType":5126,"count":17,"type":"VEC3","name":"accessorAnimationPositions"},{"bufferView":8,"byteOffset":2976,"componentType":5126,"count":17,"type":"VEC4","name":"accessorAnimationRotations"},{"bufferView":7,"byteOffset":4668,"componentType":5126,"count":17,"type":"VEC3","name":"accessorAnimationScales"},{"bufferView":6,"byteOffset":812,"componentType":5126,"count":17,"max":[0.533333361],"min":[0.0],"type":"SCALAR","name":"accessorAnimationInput"},{"bufferView":7,"byteOffset":4872,"componentType":5126,"count":17,"type":"VEC3","name":"accessorAnimationPositions"},{"bufferView":8,"byteOffset":3248,"componentType":5126,"count":17,"type":"VEC4","name":"accessorAnimationRotations"},{"bufferView":7,"byteOffset":5076,"componentType":5126,"count":17,"type":"VEC3","name":"accessorAnimationScales"},{"bufferView":6,"byteOffset":880,"componentType":5126,"count":17,"max":[0.533333361],"min":[0.0],"type":"SCALAR","name":"accessorAnimationInput"},{"bufferView":7,"byteOffset":5280,"componentType":5126,"count":17,"type":"VEC3","name":"accessorAnimationPositions"},{"bufferView":8,"byteOffset":3520,"componentType":5126,"count":17,"type":"VEC4","name":"accessorAnimationRotations"},{"bufferView":7,"byteOffset":5484,"componentType":5126,"count":17,"type":"VEC3","name":"accessorAnimationScales"},{"bufferView":6,"byteOffset":948,"componentType":5126,"count":17,"max":[0.533333361],"min":[0.0],"type":"SCALAR","name":"accessorAnimationInput"},{"bufferView":7,"byteOffset":5688,"componentType":5126,"count":17,"type":"VEC3","name":"accessorAnimationPositions"},{"bufferView":8,"byteOffset":3792,"componentType":5126,"count":17,"type":"VEC4","name":"accessorAnimationRotations"},{"bufferView":7,"byteOffset":5892,"componentType":5126,"count":17,"type":"VEC3","name":"accessorAnimationScales"},{"bufferView":6,"byteOffset":1016,"componentType":5126,"count":17,"max":[0.533333361],"min":[0.0],"type":"SCALAR","name":"accessorAnimationInput"},{"bufferView":7,"byteOffset":6096,"componentType":5126,"count":17,"type":"VEC3","name":"accessorAnimationPositions"},{"bufferView":8,"byteOffset":4064,"componentType":5126,"count":17,"type":"VEC4","name":"accessorAnimationRotations"},{"bufferView":7,"byteOffset":6300,"componentType":5126,"count":17,"type":"VEC3","name":"accessorAnimationScales"}],"bufferViews":[{"buffer":0,"byteLength":1860,"name":"bufferViewScalar"},{"buffer":0,"byteOffset":1860,"byteLength":22320,"byteStride":12,"name":"bufferViewFloatVec3"},{"buffer":0,"byteOffset":24180,"byteLength":7440,"byteStride":8,"name":"bufferViewFloatVec2"},{"buffer":0,"byteOffset":31620,"byteLength":7440,"byteStride":8,"name":"bufferViewUnsignedShortVec4"},{"buffer":0,"byteOffset":39060,"byteLength":14880,"byteStride":16,"name":"bufferViewFloatVec4"},{"buffer":0,"byteOffset":53940,"byteLength":448,"name":"bufferViewFloatMat4"},{"buffer":0,"byteOffset":54388,"byteLength":1084,"name":"bufferViewAnimationFloatScalar"},{"buffer":0,"byteOffset":55472,"byteLength":6504,"name":"bufferViewAnimationFloatVec3"},{"buffer":0,"byteOffset":61976,"byteLength":4336,"name":"bufferViewAnimationFloatVec4"}],"buffers":[{"uri":"xiaolvyu.bin","byteLength":66312}],"materials":[{"pbrMetallicRoughness":{"baseColorTexture":{"index":0},"metallicFactor":0.0,"roughnessFactor":0.9},"doubleSided":true,"name":"Material #25"}],"textures":[{"sampler":0,"source":0,"name":"xiaolvyu.png"}],"images":[{"uri":"xiaolvyu.png"}],"samplers":[{"magFilter":9729,"minFilter":9987}],"animations":[{"channels":[{"sampler":0,"target":{"node":1,"path":"translation"}},{"sampler":1,"target":{"node":1,"path":"rotation"}},{"sampler":2,"target":{"node":1,"path":"scale"}},{"sampler":3,"target":{"node":2,"path":"translation"}},{"sampler":4,"target":{"node":2,"path":"rotation"}},{"sampler":5,"target":{"node":2,"path":"scale"}},{"sampler":6,"target":{"node":3,"path":"translation"}},{"sampler":7,"target":{"node":3,"path":"rotation"}},{"sampler":8,"target":{"node":3,"path":"scale"}},{"sampler":9,"target":{"node":4,"path":"translation"}},{"sampler":10,"target":{"node":4,"path":"rotation"}},{"sampler":11,"target":{"node":4,"path":"scale"}},{"sampler":12,"target":{"node":5,"path":"translation"}},{"sampler":13,"target":{"node":5,"path":"rotation"}},{"sampler":14,"target":{"node":5,"path":"scale"}},{"sampler":15,"target":{"node":6,"path":"translation"}},{"sampler":16,"target":{"node":6,"path":"rotation"}},{"sampler":17,"target":{"node":6,"path":"scale"}},{"sampler":18,"target":{"node":7,"path":"translation"}},{"sampler":19,"target":{"node":7,"path":"rotation"}},{"sampler":20,"target":{"node":7,"path":"scale"}}],"samplers":[{"input":7,"output":8},{"input":7,"output":9},{"input":7,"output":10},{"input":11,"output":12},{"input":11,"output":13},{"input":11,"output":14},{"input":15,"output":16},{"input":15,"output":17},{"input":15,"output":18},{"input":19,"output":20},{"input":19,"output":21},{"input":19,"output":22},{"input":23,"output":24},{"input":23,"output":25},{"input":23,"output":26},{"input":27,"output":28},{"input":27,"output":29},{"input":27,"output":30},{"input":31,"output":32},{"input":31,"output":33},{"input":31,"output":34}],"name":"Swim"},{"channels":[{"sampler":0,"target":{"node":1,"path":"translation"}},{"sampler":1,"target":{"node":1,"path":"rotation"}},{"sampler":2,"target":{"node":1,"path":"scale"}},{"sampler":3,"target":{"node":2,"path":"translation"}},{"sampler":4,"target":{"node":2,"path":"rotation"}},{"sampler":5,"target":{"node":2,"path":"scale"}},{"sampler":6,"target":{"node":3,"path":"translation"}},{"sampler":7,"target":{"node":3,"path":"rotation"}},{"sampler":8,"target":{"node":3,"path":"scale"}},{"sampler":9,"target":{"node":4,"path":"translation"}},{"sampler":10,"target":{"node":4,"path":"rotation"}},{"sampler":11,"target":{"node":4,"path":"scale"}},{"sampler":12,"target":{"node":5,"path":"translation"}},{"sampler":13,"target":{"node":5,"path":"rotation"}},{"sampler":14,"target":{"node":5,"path":"scale"}},{"sampler":15,"target":{"node":6,"path":"translation"}},{"sampler":16,"target":{"node":6,"path":"rotation"}},{"sampler":17,"target":{"node":6,"path":"scale"}},{"sampler":18,"target":{"node":7,"path":"translation"}},{"sampler":19,"target":{"node":7,"path":"rotation"}},{"sampler":20,"target":{"node":7,"path":"scale"}}],"samplers":[{"input":35,"output":36},{"input":35,"output":37},{"input":35,"output":38},{"input":39,"output":40},{"input":39,"output":41},{"input":39,"output":42},{"input":43,"output":44},{"input":43,"output":45},{"input":43,"output":46},{"input":47,"output":48},{"input":47,"output":49},{"input":47,"output":50},{"input":51,"output":52},{"input":51,"output":53},{"input":51,"output":54},{"input":55,"output":56},{"input":55,"output":57},{"input":55,"output":58},{"input":59,"output":60},{"input":59,"output":61},{"input":59,"output":62}],"name":"Die"}],"skins":[{"inverseBindMatrices":6,"skeleton":1,"joints":[1,2,3,4,5,6,7],"name":"skeleton #0"}]}